<?xml version="1.0" ?><!DOCTYPE svg  PUBLIC '-//W3C//DTD SVG 1.1//EN'  'http://www.w3.org/Graphics/SVG/1.1/DTD/svg11.dtd'><svg enable-background="new 0 0 512 512" height="512px" id="Tools_1_" version="1.1" viewBox="0 0 512 512" width="512px" xml:space="preserve" xmlns="http://www.w3.org/2000/svg" xmlns:xlink="http://www.w3.org/1999/xlink"><path d="M256,0c141.355,0,256,114.645,256,256S397.355,512,256,512S0,397.355,0,256S114.645,0,256,0  z" fill="#CCFFCC" id="Background"/><g id="Tools"><path d="M445.674,272.205c2.101,1.502,4.201,3.004,5.703,4.804l1.2,1.2l0.599,1.201   c1.502,3.301,4.201,9.603,4.201,12.903v90.335c0,6.004-2.101,11.707-6.302,15.908c-4.502,4.799-10.502,7.201-16.808,7.201   c-8.703,0-17.405,0-26.108,0.301c0,8.703,0,17.707,0,26.41v8.401H93.636v-43.815L55.222,256.599c-0.899-3.601-0.899-7.201,0-10.804   h0.301c0.301-2.101,1.197-3.601,2.101-5.401h0.301c2.699-4.201,6.301-7.203,10.803-8.703h0.301l9.004-2.402V85.234   c0-7.803,6.301-14.107,13.804-14.107h316.322c7.803,0,14.104,6.304,14.104,14.107v181.268h8.104   C436.071,266.502,441.473,268.606,445.674,272.205z" fill="#4E5A62"/><g><path d="M336.13,343.335c0,0.301,0.301,0.899,0.301,1.498c0,15.606-39.017,28.213-87.033,28.213    s-86.736-12.606-86.736-28.213c0-0.599,0-1.197,0-1.498c0-0.603,0-1.201,0-1.502c0-15.607,38.72-28.511,86.736-28.511    s87.033,12.903,87.033,28.511C336.431,342.134,336.13,342.732,336.13,343.335z" fill="#757575"/><path d="M336.13,343.335c0,0.301,0.301,0.899,0.301,1.498c0,15.606-39.017,28.213-87.033,28.213    c-2.101,0-4.201,0-6.301,0v-59.423c2.101,0,4.201-0.301,6.301-0.301c48.017,0,87.033,12.903,87.033,28.511    C336.431,342.134,336.13,342.732,336.13,343.335z" fill="#696969"/><path d="M243.096,313.623c2.101,0,4.201-0.301,6.301-0.301c46.519,0,84.335,12.004,86.732,27.013    c-2.397,14.703-40.214,26.707-86.732,26.707c-2.101,0-4.201,0-6.301,0V313.623z" fill="#757575"/><path d="M249.397,310.322c47.903,0,86.732,12.631,86.732,28.209c0,15.582-38.829,28.214-86.732,28.214    c-47.903,0-86.736-12.632-86.736-28.214C162.661,322.953,201.495,310.322,249.397,310.322z" fill="#8D8D8D"/><path d="M249.397,310.322c48.017,0,87.033,12.603,87.033,28.209c0,15.908-39.017,28.511-87.033,28.511    c-2.101,0-4.201,0-6.301,0v-56.72C245.197,310.322,247.297,310.322,249.397,310.322z" fill="#7F7F7F"/><polygon fill="#CCCCCC" points="217.883,256 280.908,256 280.908,331.628 217.883,331.628   "/><polygon fill="#B8B8B8" points="280.908,296.515 280.908,331.628 243.096,331.628 243.096,296.515   "/><polygon fill="#B8B8B8" points="222.686,260.804 277.31,260.804 277.31,326.828 222.686,326.828   "/><polygon fill="#A6A6A6" points="277.31,296.515 277.31,326.828 243.096,326.828 243.096,296.515   "/><path d="M91.837,79.531h316.322c3.301,0,5.703,2.402,5.703,5.703v205.577c0,3.302-2.402,5.703-5.703,5.703H91.837    c-3,0-5.703-2.401-5.703-5.703V85.234C86.134,81.933,88.837,79.531,91.837,79.531z" fill="#A9ABAE"/><path d="M104.443,87.935h296.515c2.699,0,4.502,2.101,4.502,4.5v186.373c0,2.703-1.803,4.502-4.502,4.502H99.038    c-2.401,0-4.201-1.799-4.201-4.502V97.839C94.837,92.435,99.038,87.935,104.443,87.935z" fill="#669999"/><path d="M250,284.511c2.483,0,4.502,2.015,4.502,4.502s-2.019,4.502-4.502,4.502c-2.491,0-4.502-2.015-4.502-4.502    S247.509,284.511,250,284.511z" fill="#CCCCCC"/><path d="M250,286.013c1.653,0,2.996,1.343,2.996,3c0,1.656-1.343,3-2.996,3c-1.661,0-3.004-1.344-3.004-3    C246.996,287.355,248.339,286.013,250,286.013z" fill="#B3B3B3"/><path d="M113.443,93.937h278.511c2.101,0,4.201,1.799,4.201,4.201v174.966c0,2.401-2.101,4.205-4.201,4.205    H108.343c-2.101,0-4.201-1.804-4.201-4.205V103.241C104.142,98.138,108.343,93.937,113.443,93.937z" fill="#336666"/><path d="M197.18,327.427c4.201,0,7.498,3.302,7.498,7.804c0,4.2-3.297,7.502-7.498,7.502    c-4.502,0-7.807-3.302-7.807-7.502C189.373,330.729,192.678,327.427,197.18,327.427z" fill="#657280"/><path d="M197.18,330.729c2.398,0,4.201,2.1,4.201,4.502c0,2.401-1.803,4.2-4.201,4.2    c-2.401,0-4.502-1.799-4.502-4.2C192.678,332.828,194.778,330.729,197.18,330.729z" fill="#5E6976"/><path d="M71.728,239.494l105.343-29.711c6.301-1.502,12.904,2.101,14.703,8.703l43.816,160.264    c1.803,6.301-1.799,13.205-8.1,15.004L122.15,423.465c-6.603,1.803-13.205-2.101-15.008-8.402L63.322,254.5    C61.523,248.197,65.423,241.295,71.728,239.494z" fill="#B88A2E"/><path d="M71.728,239.494l105.343-29.711c1.498-0.301,3-0.301,4.502-0.301c2.996,1.502,5.699,4.203,6.603,7.804    l44.117,160.565c1.498,6.301-2.101,13.205-8.406,15.004l-105.343,29.41c-1.498,0.603-2.996,0.603-4.502,0.603    c-3.297-1.502-5.699-4.201-6.9-7.804L63.322,254.5C61.523,248.197,65.423,241.295,71.728,239.494z" fill="#CC9933"/><path d="M105.042,230.19l38.715-10.806c0.301,1.801,1.498,11.406-0.301,12.006l-32.113,9.002    C109.54,240.994,105.64,231.992,105.042,230.19z" fill="#B88A2E"/><polygon fill="#CFCFCF" points="70.226,252.098 178.268,214.883 233.188,378.749 125.146,415.962   "/><polygon fill="#E6E6E6" points="79.531,242.494 191.176,219.686 225.088,389.251 113.146,412.063   "/><path d="M105.941,221.186l6.301-1.801c0,0,0-0.299,0-0.6l-0.899-3.301c-0.599-1.799,0.598-3.601,2.401-4.201    l12.904-3.6h0.301c0.9,0.299,1.502,1.199,1.803,2.1l0.896,3.301c0,0.299,0.301,1.201,0.301,1.5c2.703-0.899,5.406-1.5,8.402-2.401    l0,0c0.904,0.301,1.803,1.201,1.803,2.103l1.201,3.301c0.301,1.799,1.498,12.004-0.301,12.303l-31.213,9.004    c-2.1-2.101-4.799-8.703-5.397-10.203l-0.904-3.303C103.239,223.588,104.142,221.787,105.941,221.186z" fill="#B8B8B8"/><path d="M111.645,219.686l0.598-0.301c0,0,0-0.299,0-0.6l-0.899-3.301c-0.599-1.5,0.301-3,1.502-3.902l0,0    l13.205-3.601h0.301c0.896,0.299,1.498,1.201,1.799,2.101l0.9,3.301c0,0.301,0.301,1.201,0.301,1.5    c2.699-0.899,5.401-1.5,8.401-2.399l0,0c0.9,0.299,1.502,1.201,1.804,2.1l0.896,3.301c0.602,1.801,1.506,10.806,0.301,12.306    l-30.913,8.703c-2.1-2.101-4.799-8.703-5.397-10.203l-0.904-3.303c-0.301-1.5,0.301-3,1.799-3.902l0,0L111.645,219.686    L111.645,219.686z" fill="#CCCCCC"/><path d="M119.448,211.582c0.899-0.299,2.1,0.301,2.401,1.502c0.301,1.201-0.301,2.4-1.502,2.701    c-0.899,0.299-2.1-0.301-2.401-1.5C117.648,213.083,118.247,211.883,119.448,211.582z" fill="#959595"/><path d="M120.645,211.883c0.603,0,1.205,0.601,1.205,1.201c0.301,1.201-0.301,2.4-1.502,2.701c0,0-0.301,0-0.598,0    c-0.603-0.301-0.904-0.601-1.205-1.201c-0.297-1.201,0.301-2.401,1.502-2.701C120.347,211.883,120.645,211.883,120.645,211.883z" fill="#A6A6A6"/><path d="M274.306,393.452c-5.101-2.699-8.402-7.502-8.402-13.502v-90.038c0-8.401,6.603-15.004,15.005-15.004    h149.46c4.201,0,7.804,1.502,10.502,4.2c-2.101-0.899-4.2-1.502-6.603-1.502H284.511c-8.101,0-14.707,6.603-14.707,14.707v90.335    C269.804,386.85,271.306,390.753,274.306,393.452z" fill="#BDC6CB"/><path d="M434.268,397.657H284.511c-8.101,0-14.707-6.904-14.707-15.009v-90.335    c0-8.104,6.606-14.707,14.707-14.707h149.757c8.104,0,14.707,6.603,14.707,14.707v90.335    C448.975,390.753,442.372,397.657,434.268,397.657z" fill="#DDE8EE"/><path d="M445.075,282.41c0.297,0,0.297,0.301,0.297,0.301h-35.711c4.502,1.201,7.502,5.101,7.502,9.904v90.335    c0,4.803-3,8.702-7.502,9.903h35.414l0,0l0,0l0,0l0,0l0,0l0,0h-0.301l0,0l0,0v0.301l0,0l0,0l0,0l0,0l0,0l0,0l0,0l0,0h-37.816    h-12.004H284.511c-5.703,0-10.205-4.502-10.205-10.204v-90.335c0-5.703,4.502-10.205,10.205-10.205h110.443h12.004H445.075z" fill="#869292"/><path d="M403.059,388.05H289.013c-5.703,0-10.205-4.502-10.205-9.903v-80.732c0-5.401,4.502-9.903,10.205-9.903    h114.046c5.401,0,9.903,4.502,9.903,9.903v80.732C412.962,383.548,408.46,388.05,403.059,388.05z" fill="#DDE8EE"/><path d="M433.071,345.436c-4.205,0-7.507-3.302-7.507-7.503c0-4.502,3.302-7.803,7.507-7.803    c4.2,0,7.799,3.301,7.799,7.803C440.87,342.134,437.271,345.436,433.071,345.436z" fill="#657280"/><path d="M433.071,342.134c-2.401,0-4.205-2.101-4.205-4.201c0-2.401,1.804-4.502,4.205-4.502    c2.397,0,4.498,2.101,4.498,4.502C437.569,340.033,435.469,342.134,433.071,342.134z" fill="#5E6976"/><polygon fill="#283848" points="183.674,329.828 138.954,407.26 139.854,413.862 145.858,411.159 190.875,333.431   "/><polygon fill="#2C3E50" points="183.674,329.828 138.954,407.26 139.854,413.561 186.971,331.628   "/><polygon fill="#3B4958" points="188.774,313.623 191.774,313.623 191.774,322.326 188.774,322.326   "/><polygon fill="#415162" points="188.774,313.623 191.176,313.623 191.176,322.326 188.774,322.326   "/><path d="M190.276,306.121L190.276,306.121c2.101,0,3.9,1.498,3.9,3.599v6.306c0,2.1-1.799,3.899-3.9,3.899l0,0    c-2.1,0-3.602-1.8-3.602-3.899v-6.306C186.674,307.619,188.176,306.121,190.276,306.121z" fill="#243241"/><path d="M190.276,306.121L190.276,306.121c2.101,0,3.9,1.498,3.9,3.599v5.104c0,2.101-1.799,3.899-3.9,3.899l0,0    c-2.1,0-3.602-1.799-3.602-3.899v-5.104C186.674,307.619,188.176,306.121,190.276,306.121z" fill="#243241"/><path d="M193.573,317.222c-0.896,0.903-1.799,1.502-2.996,1.502l0,0c-2.104,0-3.903-1.799-3.903-3.899v-5.104    c0-0.599,0.297-1.201,0.598-1.799c0.603-0.603,1.799-1.201,2.703-1.201l0,0c2.1,0,3.899,1.799,3.899,3.899v4.804    C193.875,316.025,193.875,316.925,193.573,317.222z" fill="#283848"/><path d="M186.373,308.82h8.104c0,0,0.301,0,0.301,0.301l0,0l-0.301,0.302h-8.104c-0.297,0-0.297-0.302-0.297-0.302    l0,0C186.075,308.82,186.075,308.82,186.373,308.82z M186.373,316.925h8.104l0.301,0.297l0,0c0,0.302-0.301,0.302-0.301,0.302    h-8.104c-0.297,0-0.297,0-0.297-0.302l0,0C186.075,317.222,186.075,316.925,186.373,316.925z M186.373,316.025h8.104    c0,0,0.301,0,0.301,0.297l0,0l-0.301,0.301h-8.104c-0.297,0-0.297-0.301-0.297-0.301l0,0    C186.075,316.025,186.075,316.025,186.373,316.025z M186.373,314.824h8.104l0.301,0.297l0,0c0,0.302-0.301,0.302-0.301,0.302    h-8.104c-0.297,0-0.297,0-0.297-0.302l0,0C186.075,315.121,186.075,314.824,186.373,314.824z M186.373,313.925h8.104    c0,0,0.301,0,0.301,0.297l0,0c0,0.302-0.301,0.302-0.301,0.302h-8.104c-0.297,0-0.297,0-0.297-0.302l0,0    C186.075,313.925,186.075,313.925,186.373,313.925z M186.373,313.021h8.104c0,0,0.301,0,0.301,0.302l0,0l-0.301,0.301h-8.104    c-0.297,0-0.297-0.301-0.297-0.301l0,0C186.075,313.021,186.075,313.021,186.373,313.021z M186.373,311.82h8.104l0.301,0.301l0,0    c0,0.302-0.301,0.302-0.301,0.302h-8.104c-0.297,0-0.297,0-0.297-0.302l0,0C186.075,312.121,186.075,311.82,186.373,311.82z     M186.373,310.921h8.104c0,0,0.301,0,0.301,0.301l0,0l-0.301,0.302h-8.104c-0.297,0-0.297-0.302-0.297-0.302l0,0    C186.075,310.921,186.075,310.921,186.373,310.921z M186.373,309.72h8.104l0.301,0.301l0,0c0,0.302-0.301,0.302-0.301,0.302    h-8.104c-0.297,0-0.297,0-0.297-0.302l0,0C186.075,310.021,186.075,309.72,186.373,309.72z" fill="#1A2530"/><path d="M186.373,308.82h8.104l0,0l0,0l0,0c0,0.301,0,0.301-0.301,0.301h-8.101l0,0l0,0l0,0    C186.075,308.82,186.075,308.82,186.373,308.82z M194.477,316.925c0,0.297,0,0.297,0,0.297l0,0c0,0.302,0,0.302-0.301,0.302    h-8.101l0,0c0,0,0,0,0-0.302l0,0c0,0,0-0.297,0.297-0.297H194.477L194.477,316.925z M194.477,316.025c0,0,0,0,0,0.297l0,0    c0,0,0,0.301-0.301,0.301h-8.101l0,0c0-0.301,0-0.301,0-0.301l0,0c0-0.297,0-0.297,0.297-0.297H194.477L194.477,316.025z     M194.477,315.121L194.477,315.121L194.477,315.121c0,0.302,0,0.302-0.301,0.302h-8.101l0,0c0,0,0,0,0-0.302l0,0    c0,0,0-0.297,0.297-0.297h8.104C194.477,314.824,194.477,314.824,194.477,315.121z M194.477,313.925c0,0,0,0,0,0.297l0,0    c0,0,0,0.302-0.301,0.302h-8.101l0,0c0-0.302,0-0.302,0-0.302l0,0c0-0.297,0-0.297,0.297-0.297H194.477L194.477,313.925z     M194.477,313.021L194.477,313.021L194.477,313.021c0,0.302,0,0.302-0.301,0.302h-8.101l0,0l0,0l0,0c0-0.302,0-0.302,0.297-0.302    H194.477L194.477,313.021z M194.477,311.82v0.301l0,0c0,0,0,0.302-0.301,0.302h-8.101l0,0v-0.302l0,0c0,0,0-0.301,0.297-0.301    H194.477L194.477,311.82z M194.477,310.921L194.477,310.921L194.477,310.921c0,0.301,0,0.301-0.301,0.301h-8.101l0,0l0,0l0,0    c0-0.301,0-0.301,0.297-0.301H194.477L194.477,310.921z M194.477,309.72v0.301l0,0c0,0,0,0.302-0.301,0.302h-8.101l0,0v-0.302l0,0    c0,0,0-0.301,0.297-0.301H194.477L194.477,309.72z" fill="#202D3B"/><path d="M229.289,337.033c-4.803,17.104-20.41,29.712-39.013,29.712c-18.61,0-34.217-12.607-39.017-29.712h5.402    c4.502,14.104,18.008,24.607,33.615,24.607c15.904,0,29.109-10.503,33.611-24.607H229.289z" fill="#283848"/><path d="M152.46,337.033h4.201c4.502,14.104,18.008,24.607,33.615,24.607c15.904,0,29.109-10.503,33.611-24.607    h4.205c-5.707,15.306-20.41,26.109-37.816,26.109C173.167,363.143,158.159,352.339,152.46,337.033z" fill="#2C3E50"/><path d="M183.975,332.23l1.498-2.703c2.101-3.599,8.703,0.301,6.603,3.903l-1.498,2.699L183.975,332.23z" fill="#CC3300"/><polygon fill="#283848" points="196.276,330.729 240.996,407.857 240.092,414.46 234.092,412.063 189.071,334.029   "/><polygon fill="#2C3E50" points="196.276,330.729 240.996,407.857 240.092,414.46 192.975,332.23   "/><path d="M190.276,321.724c4.502,0,8.402,3.603,8.402,8.104c0,4.804-3.899,8.402-8.402,8.402    c-4.502,0-8.104-3.599-8.104-8.402C182.171,325.326,185.774,321.724,190.276,321.724z" fill="#ECF0F1"/><path d="M190.276,322.628c4.201,0,7.502,3.301,7.502,7.2c0,4.201-3.301,7.502-7.502,7.502    c-3.903,0-7.506-3.301-7.506-7.502C182.77,325.929,186.373,322.628,190.276,322.628z" fill="#BFC2C3"/><path d="M190.276,325.025c2.699,0,4.799,2.401,4.799,4.803c0,2.703-2.1,4.804-4.799,4.804    c-2.703,0-4.803-2.101-4.803-4.804C185.473,327.427,187.573,325.025,190.276,325.025z" fill="#ACAFB0"/><path d="M190.276,328.326c0.9,0,1.799,0.603,1.799,1.502c0,0.9-0.899,1.8-1.799,1.8    c-0.903,0-1.502-0.899-1.502-1.8C188.774,328.929,189.373,328.326,190.276,328.326z" fill="#717373"/><polygon fill="#CCCCCC" points="102.042,397.954 399.757,397.954 399.757,432.469 102.042,432.469   "/><polygon fill="#373435" points="108.042,397.954 108.945,397.954 108.945,413.862 108.042,413.862   "/><polygon fill="#373435" points="113.146,397.954 114.042,397.954 114.042,408.762 113.146,408.762   "/><polygon fill="#373435" points="118.845,397.954 119.749,397.954 119.749,413.862 118.845,413.862   "/><polygon fill="#373435" points="123.95,397.954 124.849,397.954 124.849,408.762 123.95,408.762   "/><polygon fill="#373435" points="129.95,397.954 130.854,397.954 130.854,413.862 129.95,413.862   "/><polygon fill="#373435" points="135.054,397.954 135.954,397.954 135.954,408.762 135.054,408.762   "/><polygon fill="#373435" points="141.054,397.954 141.958,397.954 141.958,413.862 141.054,413.862   "/><polygon fill="#373435" points="146.159,397.954 146.757,397.954 146.757,408.762 146.159,408.762   "/><polygon fill="#373435" points="151.858,397.954 152.761,397.954 152.761,413.862 151.858,413.862   "/><polygon fill="#373435" points="156.962,397.954 157.862,397.954 157.862,408.762 156.962,408.762   "/><polygon fill="#373435" points="162.962,397.954 163.866,397.954 163.866,413.862 162.962,413.862   "/><polygon fill="#373435" points="168.067,397.954 168.966,397.954 168.966,408.762 168.067,408.762   "/><polygon fill="#373435" points="174.067,397.954 174.971,397.954 174.971,413.862 174.067,413.862   "/><polygon fill="#373435" points="178.87,397.954 179.77,397.954 179.77,408.762 178.87,408.762   "/><polygon fill="#373435" points="184.87,397.954 185.774,397.954 185.774,413.862 184.87,413.862   "/><polygon fill="#373435" points="189.975,397.954 190.875,397.954 190.875,408.762 189.975,408.762   "/><polygon fill="#373435" points="195.975,397.954 196.878,397.954 196.878,413.862 195.975,413.862   "/><polygon fill="#373435" points="201.08,397.954 201.979,397.954 201.979,408.762 201.08,408.762   "/><polygon fill="#373435" points="207.08,397.954 207.983,397.954 207.983,413.862 207.08,413.862   "/><polygon fill="#373435" points="211.883,397.954 212.782,397.954 212.782,408.762 211.883,408.762   "/><polygon fill="#373435" points="217.883,397.954 218.787,397.954 218.787,413.862 217.883,413.862   "/><polygon fill="#373435" points="222.987,397.954 223.887,397.954 223.887,408.762 222.987,408.762   "/><polygon fill="#373435" points="228.987,397.954 229.891,397.954 229.891,413.862 228.987,413.862   "/><polygon fill="#373435" points="234.092,397.954 234.992,397.954 234.992,408.762 234.092,408.762   "/><polygon fill="#373435" points="240.092,397.954 240.996,397.954 240.996,413.862 240.092,413.862   "/><polygon fill="#373435" points="244.896,397.954 245.795,397.954 245.795,408.762 244.896,408.762   "/><polygon fill="#373435" points="250.896,397.954 251.799,397.954 251.799,413.862 250.896,413.862   "/><polygon fill="#373435" points="256,397.954 256.899,397.954 256.899,408.762 256,408.762   "/><polygon fill="#373435" points="262.004,397.954 262.903,397.954 262.903,413.862 262.004,413.862   "/><polygon fill="#373435" points="267.104,397.954 268.004,397.954 268.004,408.762 267.104,408.762   "/><polygon fill="#373435" points="272.808,397.954 273.707,397.954 273.707,413.862 272.808,413.862   "/><polygon fill="#373435" points="277.908,397.954 278.808,397.954 278.808,408.762 277.908,408.762   "/><polygon fill="#373435" points="283.912,397.954 284.812,397.954 284.812,413.862 283.912,413.862   "/><polygon fill="#373435" points="289.013,397.954 289.912,397.954 289.912,408.762 289.013,408.762   "/><polygon fill="#373435" points="295.017,397.954 295.916,397.954 295.916,413.862 295.017,413.862   "/><polygon fill="#373435" points="300.117,397.954 301.017,397.954 301.017,408.762 300.117,408.762   "/><polygon fill="#373435" points="305.82,397.954 306.72,397.954 306.72,413.862 305.82,413.862   "/><polygon fill="#373435" points="310.921,397.954 311.82,397.954 311.82,408.762 310.921,408.762   "/><polygon fill="#373435" points="316.925,397.954 317.824,397.954 317.824,413.862 316.925,413.862   "/><polygon fill="#373435" points="322.025,397.954 322.925,397.954 322.925,408.762 322.025,408.762   "/><polygon fill="#373435" points="328.029,397.954 328.929,397.954 328.929,413.862 328.029,413.862   "/><polygon fill="#373435" points="333.13,397.954 333.732,397.954 333.732,408.762 333.13,408.762   "/><polygon fill="#373435" points="338.833,397.954 339.732,397.954 339.732,413.862 338.833,413.862   "/><polygon fill="#373435" points="343.934,397.954 344.833,397.954 344.833,408.762 343.934,408.762   "/><polygon fill="#373435" points="349.938,397.954 350.837,397.954 350.837,413.862 349.938,413.862   "/><polygon fill="#373435" points="355.038,397.954 355.938,397.954 355.938,408.762 355.038,408.762   "/><polygon fill="#373435" points="361.042,397.954 361.941,397.954 361.941,413.862 361.042,413.862   "/><polygon fill="#373435" points="365.841,397.954 366.745,397.954 366.745,408.762 365.841,408.762   "/><polygon fill="#373435" points="371.845,397.954 372.745,397.954 372.745,413.862 371.845,413.862   "/><polygon fill="#373435" points="376.945,397.954 377.85,397.954 377.85,408.762 376.945,408.762   "/><polygon fill="#373435" points="382.95,397.954 383.85,397.954 383.85,413.862 382.95,413.862   "/><polygon fill="#373435" points="388.05,397.954 388.954,397.954 388.954,408.762 388.05,408.762   "/><polygon fill="#373435" points="394.055,397.954 394.954,397.954 394.954,413.862 394.055,413.862   "/><polygon fill="#FFCC99" points="237.992,388.652 237.393,401.255 219.983,394.954   "/><path d="M237.992,388.652l-0.599,12.603l-1.502-0.598c-0.598-0.603-1.498-1.502-1.799-2.402    c-0.602-0.899,2.101-2.1,2.402-3.301c0-0.899-2.402-2.101-2.703-3c-0.301-0.302,1.502-1.804,2.703-2.703L237.992,388.652z" fill="#FFCC99"/><polygon fill="#4D4D4D" points="223.887,396.456 219.983,394.954 223.887,393.452   "/><path d="M237.992,388.652H381.15c7.502,0,7.502,12.603,0,12.603H237.393c-0.598-1.799-2.401-2.698-2.401-3.301    c0-0.599,2.401-1.799,2.401-3c0-1.502-3-2.703-2.401-3.302C235.59,391.352,236.494,390.15,237.992,388.652z" fill="#E6B800"/><path d="M235.891,397.055c0.603-0.599,1.502-1.498,1.502-2.101c0-0.899-0.899-1.502-1.803-2.101h136.255v4.201    H235.891z" fill="#FFCC00"/><path d="M237.992,388.652h133.853v4.201H235.59c-0.598-0.603-0.896-0.899-0.598-1.201    C235.59,391.352,236.494,390.15,237.992,388.652z" fill="#E6B800"/><polygon fill="#CFA600" points="371.845,388.652 375.745,388.652 375.745,401.255 371.845,401.255   "/><path d="M375.745,388.652h5.405c7.502,0,7.502,12.603,0,12.603h-5.405V388.652z" fill="#CC3300"/><polygon fill="#757575" points="217.586,312.423 217.883,312.121 217.883,296.515 213.381,296.515   "/><polygon fill="#757575" points="434.569,277.606 434.268,277.606 413.862,277.606 413.862,277.606 434.268,277.606   "/><path d="M436.971,277.908c-0.603-0.302-1.201-0.302-1.502-0.302C435.77,277.606,436.368,277.606,436.971,277.908z" fill="#757575"/><polygon fill="#757575" points="223.887,396.456 221.188,395.557 212.485,397.954 212.782,397.954 217.883,397.954     218.787,397.954 222.987,397.954 223.887,397.954 225.987,397.954 225.389,396.753   "/><path d="M268.606,388.652c-1.502-2.401-2.703-5.401-2.703-8.702v-7.507h-1.2l0,0l-2.101,0.302l0,0h-2.101l0,0    h-2.101l0,0L256,373.046l0,0h-2.101l0,0h-2.1l0,0h-2.402l0,0c-1.498,0-2.703,0-4.201,0l0,0h-0.301l0,0l0,0l0,0l0,0h-0.301h-1.498    l0,0c-3.004-0.301-6.004-0.301-9.004-0.603l1.498,6.306c1.205,4.201,0,8.703-2.699,11.703l5.101-1.8H268.606z" fill="#757575"/></g></g></svg>